<?xml version="1.0" encoding="UTF-8"?>
<svg width="275px" height="155px" viewBox="0 0 275 155" version="1.1" xmlns="http://www.w3.org/2000/svg" xmlns:xlink="http://www.w3.org/1999/xlink">
    <!-- Generator: Sketch 44 (41411) - http://www.bohemiancoding.com/sketch -->
    <title>red-2</title>
    <desc>Created with Sketch.</desc>
    <defs>
        <linearGradient x1="0%" y1="29.7894022%" x2="100%" y2="65.7846467%" id="linearGradient-1">
            <stop stop-color="#AF4891" offset="0%"></stop>
            <stop stop-color="#F55D7B" offset="100%"></stop>
        </linearGradient>
        <linearGradient x1="103.940658%" y1="36.5879685%" x2="0%" y2="36.58797%" id="linearGradient-2">
            <stop stop-color="#F35C7B" offset="0%"></stop>
            <stop stop-color="#BE4D8D" offset="100%"></stop>
        </linearGradient>
    </defs>
    <g id="Page-1" stroke="none" stroke-width="1" fill="none" fill-rule="evenodd">
        <g id="Artboard" transform="translate(-458.000000, -148.000000)">
            <g id="red-2" transform="translate(458.560034, 148.503854)">
                <path d="M102.556186,100.25912 L114.825612,100.25912 C115.472949,95.7243409 119.365012,92.2383903 124.069614,92.2383903 C129.227166,92.2383903 133.408187,96.4278938 133.408187,101.595908 C133.408187,106.763923 129.227166,110.953426 124.069614,110.953426 C123.107549,110.953426 122.179462,110.807651 121.306153,110.536941 L103.48878,137.288284 C105.471652,139.004213 106.72655,141.541827 106.72655,144.373133 C106.72655,149.541147 102.545528,153.730651 97.3879766,153.730651 C92.2304251,153.730651 88.0494035,149.541147 88.0494035,144.373133 L58.6996023,144.373133 C58.6996023,147.326284 56.3104471,149.720286 53.3632748,149.720286 C50.4161026,149.720286 48.0269474,147.326284 48.0269474,144.373133 C48.0269474,143.600649 48.1904225,142.866424 48.4845987,142.203299 L25.8584487,126.507264 C23.8211871,128.465231 21.0558765,129.668462 18.0101053,129.668462 C11.7473641,129.668462 6.67040936,124.581208 6.67040936,118.305762 C6.67040936,113.486894 9.66407978,109.368655 13.8895214,107.716517 L5.30995045,82.8808085 C3.79139075,82.8734444 2.42277217,82.230501 1.45544588,81.2038396 L0.973519203,81.0382724 L1.07238024,80.7493428 C0.399139353,79.8544091 0,78.7407708 0,77.5337194 C0,75.0650855 1.66949996,72.9871752 3.9388684,72.37179 L14.2810577,42.1458789 C12.0852174,40.4337159 10.672655,37.7604008 10.672655,34.7564949 C10.672655,29.5884805 14.8536766,25.398977 20.0112281,25.398977 C22.390315,25.398977 24.5616146,26.2904251 26.2105989,27.758155 L48.3290907,11.135633 C48.1334028,10.5793476 48.0269474,9.98088997 48.0269474,9.35751786 C48.0269474,6.40436677 50.4161026,4.0103648 53.3632748,4.0103648 C56.0845468,4.0103648 58.3300671,6.05143222 58.6583167,8.68912373 L88.0728594,8.68912373 C88.4148823,3.83305615 92.4547066,0 97.3879766,0 C102.545528,0 106.72655,4.18950345 106.72655,9.35751786 C106.72655,11.1074809 106.247156,12.7452483 105.412783,14.1461522 L130.312338,30.4006567 C131.185378,29.7765171 132.25399,29.4093418 133.408187,29.4093418 C136.355359,29.4093418 138.744515,31.8033438 138.744515,34.7564949 C138.744515,37.709646 136.355359,40.103648 133.408187,40.103648 C130.461015,40.103648 128.07186,37.709646 128.07186,34.7564949 C128.07186,33.9358799 128.256341,33.1584402 128.586013,32.4635455 L103.722892,16.2328256 C102.058247,17.7736218 99.8328288,18.7150357 97.3879766,18.7150357 C94.7986656,18.7150357 92.4554859,17.6590845 90.7639283,15.9534956 L41.1890053,52.8552908 L33.7858185,75.1099069 L42.4222974,104.187345 L51.1037562,110.276694 L92.0556942,101.385774 C92.1658281,98.5300233 94.5110323,96.2487551 97.3879766,96.2487551 C99.874491,96.2487551 101.963797,97.9528564 102.556186,100.25912 Z M102.556186,102.932696 C102.073545,104.811696 100.597254,106.290982 98.7220585,106.774603 L98.7220585,135.110378 C99.6079243,135.237348 100.453684,135.488897 101.241096,135.846745 L118.873882,109.372546 C116.725329,107.928367 115.208345,105.61385 114.825612,102.932696 L102.556186,102.932696 Z M92.6195962,103.998959 L54.0820179,112.365707 L90.5810098,137.966832 C91.9969873,136.456773 93.9077448,135.417984 96.0538947,135.110378 L96.0538947,106.774603 C94.5506416,106.386907 93.3037423,105.359352 92.6195962,103.998959 Z M50.2782628,140.009567 L42.7953884,114.816104 L29.3359034,117.738242 C29.3451324,117.92625 29.3498012,118.115459 29.3498012,118.305762 C29.3498012,120.563373 28.69273,122.667206 27.5597607,124.435719 L50.1478218,140.105331 C50.1907995,140.072769 50.2342845,140.040843 50.2782628,140.009567 Z M52.7793463,139.057626 C52.9711212,139.036712 53.1659472,139.02598 53.3632748,139.02598 C55.3384688,139.02598 57.0630195,140.101288 57.9856959,141.699555 L88.4361254,141.699556 C88.5953999,141.1633 88.8013568,140.64719 89.049274,140.155957 L50.5290264,113.137083 L45.4105762,114.24833 L52.7793463,139.057626 Z M8.9035902,73.5568487 L26.6231246,60.3670627 L21.7477381,43.9525322 C21.1850814,44.0585559 20.604618,44.1140128 20.0112281,44.1140128 C18.8236236,44.1140128 17.6877968,43.8918767 16.6428716,43.486808 L6.75729779,72.3782237 C7.56584074,72.6014835 8.29748582,73.0106057 8.9035902,73.5568487 Z M10.3815372,75.7872655 C10.5701949,76.3345738 10.672655,76.9221569 10.672655,77.5337194 C10.672655,78.8634987 10.1882237,80.0799035 9.38654825,81.0154075 L25.2964919,92.1749612 L30.9884711,75.0643824 L27.4332441,63.0945863 L10.3815372,75.7872655 Z M49.8207772,13.3565692 L27.9358682,29.8035487 C28.831926,31.2400119 29.3498012,32.9376526 29.3498012,34.7564949 C29.3498012,38.3857857 27.2878493,41.5325049 24.2737676,43.084579 L28.9029152,58.6700683 L38.9234554,51.2111375 L51.21732,14.2547236 C50.7045208,14.0287775 50.2339556,13.7243315 49.8207772,13.3565692 Z M58.3117067,11.3627003 C57.5827429,13.1671991 55.8992682,14.4822054 53.8886441,14.6790849 L42.661577,48.4286137 L89.1713837,13.8083813 C88.7614726,13.050185 88.4530321,12.228863 88.2643104,11.3627003 L58.3117067,11.3627003 Z M20.3062271,107.176126 L24.4162463,94.8210553 L8.37014702,83.5659994 L16.4811976,107.045459 C16.9812335,106.977931 17.4916055,106.943061 18.0101053,106.943061 C18.7967584,106.943061 19.5647028,107.023325 20.3062271,107.176126 Z M22.8376036,108.021182 C25.7433078,109.393026 27.9735613,111.964878 28.891935,115.099018 L42.0320874,112.24621 L40.1302876,105.843199 L26.6966448,96.4205725 L22.8376036,108.021182 Z M38.9058857,101.720863 L32.315118,79.530959 L27.5768905,93.7744784 L38.9058857,101.720863 Z M29.7130347,61.3975919 L32.4591716,70.6433303 L37.4508837,55.6378145 L29.7130347,61.3975919 Z M43.6466993,108.309681 L44.6472752,111.678436 L47.5507647,111.048071 L43.6466993,108.309681 Z" id="Combined-Shape" fill="url(#linearGradient-1)" fill-rule="nonzero"></path>
                <path d="M165.009251,60.4844472 L161.929398,63.5392173 C159.980378,61.4713626 157.708293,60.4374507 155.113074,60.4374507 C152.851377,60.4374507 150.957104,61.1893866 149.430198,62.6932809 C147.903292,64.1971752 147.13985,66.0247972 147.13985,68.1762015 C147.13985,70.4007119 147.931953,72.2857734 149.516183,73.8314425 C151.100414,75.3771117 153.054616,76.1499347 155.378848,76.1499347 C156.89012,76.1499347 158.16426,75.8314063 159.201305,75.1943399 C160.238351,74.5572736 161.074749,73.5599142 161.710526,72.2022318 L155.050539,72.2022318 L155.050539,68.0822086 L166.61953,68.0822086 L166.650797,69.0534688 C166.650797,71.069105 166.129677,72.9802753 165.08742,74.7870373 C164.045164,76.5937992 162.695461,77.9723483 161.038273,78.922726 C159.381085,79.8731036 157.437306,80.3482853 155.206876,80.3482853 C152.820109,80.3482853 150.691331,79.8287185 148.820481,78.7895693 C146.94963,77.7504201 145.469648,76.2700464 144.380489,74.3484036 C143.291331,72.4267609 142.74676,70.3537154 142.74676,68.1292051 C142.74676,65.0796416 143.752523,62.4269789 145.764078,60.1711374 C148.150846,57.4871038 151.256724,56.1451072 155.081806,56.1451072 C157.082939,56.1451072 158.953762,56.5158533 160.69433,57.2573568 C162.163912,57.8839794 163.602205,58.9596655 165.009251,60.4844472 Z M170.356001,56.7247302 L174.70219,56.7247302 L174.70219,79.7686623 L170.356001,79.7686623 L170.356001,56.7247302 Z M179.92387,56.7247302 L184.5671,56.7247302 C187.110206,56.7247302 188.9211,56.9518775 189.999836,57.4061789 C191.078572,57.8604803 191.946237,58.6150271 192.602859,59.6698418 C193.259481,60.7246566 193.587787,61.9726613 193.587787,63.4138934 C193.587787,64.9282314 193.225608,66.1945123 192.501239,67.2127741 C191.776871,68.2310358 190.685124,69.0012479 189.225964,69.5234335 L194.666517,79.7686623 L189.882583,79.7686623 L184.707804,70.0090636 L184.301326,70.0090636 L184.301326,79.7686623 L179.92387,79.7686623 L179.92387,56.7247302 Z M184.301326,65.7323855 L185.677098,65.7323855 C187.073722,65.7323855 188.035189,65.5496233 188.561529,65.1840934 C189.087868,64.8185636 189.351034,64.2128374 189.351034,63.3668969 C189.351034,62.8655988 189.220754,62.4295804 188.96019,62.0588287 C188.699626,61.688077 188.350475,61.4217663 187.912727,61.2598888 C187.47498,61.0980113 186.672454,61.0170738 185.505126,61.0170738 L184.301326,61.0170738 L184.301326,65.7323855 Z M198.199749,56.7247302 L202.577205,56.7247302 L202.577205,75.5859771 L208.955784,75.5859771 L208.955784,79.7686623 L198.199749,79.7686623 L198.199749,56.7247302 Z M224.339416,59.8578277 L221.103225,62.7246119 C219.967165,61.1371679 218.810278,60.3434578 217.632528,60.3434578 C217.059287,60.3434578 216.590278,60.4975002 216.225488,60.8055897 C215.860698,61.1136791 215.678306,61.4609273 215.678306,61.8473446 C215.678306,62.2337619 215.808586,62.5992863 216.069151,62.9439287 C216.423518,63.403452 217.491815,64.3903678 219.274074,65.9047059 C220.941684,67.3041631 221.952658,68.1866434 222.307026,68.5521732 C223.192944,69.4503324 223.820894,70.3093147 224.190895,71.1291459 C224.560896,71.9489772 224.745894,72.844512 224.745894,73.815777 C224.745894,75.7060887 224.094493,77.2674 222.791672,78.4997578 C221.488852,79.7321156 219.789999,80.3482853 217.695063,80.3482853 C216.05872,80.3482853 214.633455,79.9462085 213.419226,79.1420428 C212.204997,78.3378771 211.165362,77.0742071 210.300289,75.3509948 L213.974225,73.1264956 C215.079017,75.1630191 216.350551,76.1812657 217.788865,76.1812657 C218.53929,76.1812657 219.169846,75.961951 219.680552,75.5233152 C220.191258,75.0846793 220.446607,74.578167 220.446607,74.0037629 C220.446607,73.4815774 220.253792,72.9593997 219.868157,72.4372141 C219.482522,71.9150286 218.633096,71.1160967 217.319852,70.0403946 C214.818436,67.9934273 213.202963,66.4138398 212.473383,65.3015846 C211.743803,64.1893294 211.379019,63.0797018 211.379019,61.9726685 C211.379019,60.3747808 211.986124,59.0040643 213.200353,57.860478 C214.414582,56.7168917 215.912804,56.1451072 217.695063,56.1451072 C218.841545,56.1451072 219.933293,56.4114178 220.970338,56.944047 C222.007383,57.4766763 223.130398,58.4479268 224.339416,59.8578277 Z M166.979107,96.8753746 L163.914887,99.8048208 C161.830374,97.6011979 159.485332,96.4994029 156.87969,96.4994029 C154.680528,96.4994029 152.827945,97.2513388 151.321884,98.7552331 C149.815823,100.259127 149.062804,102.112858 149.062804,104.316481 C149.062804,105.851707 149.396321,107.21459 150.063365,108.405173 C150.73041,109.595756 151.673638,110.530454 152.893078,111.209296 C154.112519,111.888137 155.467432,112.227552 156.957859,112.227552 C158.229412,112.227552 159.391511,111.989962 160.44419,111.514773 C161.496869,111.039584 162.653757,110.17538 163.914887,108.922135 L166.885304,112.023901 C165.186426,113.684451 163.581374,114.835853 162.070102,115.478141 C160.55883,116.120429 158.833921,116.441568 156.895324,116.441568 C153.320383,116.441568 150.394292,115.305832 148.116961,113.034325 C145.83963,110.762818 144.700982,107.851677 144.700982,104.300816 C144.700982,102.003199 145.219497,99.9614846 146.256542,98.1756101 C147.293587,96.3897356 148.778781,94.9537469 150.712167,93.867601 C152.645553,92.7814551 154.72743,92.2383903 156.957859,92.2383903 C158.854766,92.2383903 160.681293,92.6404672 162.437496,93.4446329 C164.193698,94.2487986 165.707554,95.3923677 166.979107,96.8753746 Z M180.916753,92.241052 C184.168099,92.2978044 186.942889,93.5265399 189.241206,95.9272953 C191.539523,98.3280507 192.659046,101.225229 192.599809,104.618918 C192.541119,107.981281 191.337346,110.806571 188.988453,113.094873 C186.63956,115.383175 183.818642,116.49857 180.525612,116.44109 C177.076268,116.380881 174.231411,115.135255 171.990956,112.704174 C169.750501,110.273092 168.658997,107.412961 168.716411,104.123693 C168.75487,101.920405 169.321691,99.9039413 170.416892,98.0742398 C171.512094,96.2445382 172.999177,94.8055638 174.878186,93.7572734 C176.757196,92.7089829 178.770031,92.2035808 180.916753,92.241052 Z M180.430572,96.531654 C178.304692,96.4945466 176.50458,97.2047309 175.030182,98.6622279 C173.555784,100.119725 172.798638,101.991858 172.758721,104.278682 C172.714248,106.826559 173.590892,108.857774 175.388682,110.372387 C176.785703,111.556201 178.401236,112.164106 180.235328,112.19612 C182.309103,112.232318 184.088556,111.511328 185.573739,110.033128 C187.058923,108.554929 187.820733,106.714213 187.859191,104.510926 C187.897468,102.318081 187.195197,100.449198 185.752359,98.9042218 C184.309521,97.3592456 182.53561,96.5683976 180.430572,96.531654 Z M196.38102,92.8180134 L201.571433,92.8180134 C204.917077,92.8180134 207.402822,93.2331446 209.028742,94.0634196 C210.654662,94.8936946 211.993942,96.2435239 213.046621,98.1129481 C214.099301,99.9823723 214.625632,102.165075 214.625632,104.661122 C214.625632,106.436553 214.331199,108.068358 213.742324,109.556587 C213.153449,111.044815 212.340501,112.279766 211.303456,113.261475 C210.26641,114.243183 209.143396,114.922014 207.934378,115.297988 C206.72536,115.673961 204.630456,115.861945 201.649602,115.861945 L196.38102,115.861945 L196.38102,92.8180134 Z M200.742843,97.047695 L200.742843,111.569602 L202.775233,111.569602 C204.776366,111.569602 206.227687,111.339844 207.129239,110.88032 C208.030791,110.420797 208.768176,109.647974 209.341417,108.561828 C209.914659,107.475682 210.201275,106.138907 210.201275,104.551463 C210.201275,102.107635 209.518607,100.21213 208.153251,98.8648915 C206.923388,97.6534211 204.948341,97.047695 202.228051,97.047695 L200.742843,97.047695 Z M218.47154,92.8180134 L222.817729,92.8180134 L222.817729,115.861945 L218.47154,115.861945 L218.47154,92.8180134 Z M227.758001,92.8180134 L231.947852,92.8180134 L241.812762,107.982205 L241.812762,92.8180134 L246.190218,92.8180134 L246.190218,115.861945 L241.984733,115.861945 L232.135457,100.74475 L232.135457,115.861945 L227.758001,115.861945 L227.758001,92.8180134 Z M272.658194,96.5777304 L269.578341,99.6325004 C267.629321,97.5646457 265.357235,96.5307339 262.762016,96.5307339 C260.500319,96.5307339 258.606046,97.2826698 257.07914,98.7865641 C255.552234,100.290458 254.788792,102.11808 254.788792,104.269485 C254.788792,106.493995 255.580896,108.379057 257.165126,109.924726 C258.749356,111.470395 260.703558,112.243218 263.02779,112.243218 C264.539062,112.243218 265.813202,111.924689 266.850247,111.287623 C267.887293,110.650557 268.723691,109.653197 269.359468,108.295515 L262.699481,108.295515 L262.699481,104.175492 L274.268472,104.175492 L274.29974,105.146752 C274.29974,107.162388 273.778619,109.073559 272.736363,110.88032 C271.694106,112.687082 270.344404,114.065631 268.687216,115.016009 C267.030028,115.966387 265.086248,116.441568 262.855819,116.441568 C260.469051,116.441568 258.340274,115.922002 256.469423,114.882852 C254.598572,113.843703 253.11859,112.36333 252.029432,110.441687 C250.940273,108.520044 250.395702,106.446999 250.395702,104.222488 C250.395702,101.172925 251.401465,98.5202621 253.41302,96.2644206 C255.799788,93.580387 258.905667,92.2383903 262.730749,92.2383903 C264.731881,92.2383903 266.602704,92.6091365 268.343273,93.3506399 C269.812855,93.9772626 271.251147,95.0529486 272.658194,96.5777304 Z M147.212808,126.23772 L152.40322,126.23772 C155.748864,126.23772 158.234609,126.652851 159.860529,127.483126 C161.48645,128.313401 162.825729,129.663231 163.878409,131.532655 C164.931088,133.402079 165.45742,135.584782 165.45742,138.080829 C165.45742,139.856259 165.162986,141.488065 164.574111,142.976293 C163.985236,144.464522 163.172288,145.699472 162.135243,146.681181 C161.098198,147.66289 159.975183,148.341721 158.766165,148.717695 C157.557147,149.093668 155.462243,149.281652 152.481389,149.281652 L147.212808,149.281652 L147.212808,126.23772 Z M151.57463,130.467402 L151.57463,144.989309 L153.60702,144.989309 C155.608153,144.989309 157.059474,144.75955 157.961026,144.300027 C158.862578,143.840504 159.599963,143.067681 160.173205,141.981535 C160.746446,140.895389 161.033062,139.558614 161.033062,137.97117 C161.033062,135.527342 160.350394,133.631837 158.985038,132.284598 C157.755175,131.073128 155.780128,130.467402 153.059838,130.467402 L151.57463,130.467402 Z M173.951769,126.23772 L178.39176,126.23772 L187.240475,149.281652 L182.691047,149.281652 L180.893164,144.535009 L171.512901,144.535009 L169.636848,149.281652 L165.08742,149.281652 L173.951769,126.23772 Z M176.203032,132.34726 L173.138813,140.258331 L179.251618,140.258331 L176.203032,132.34726 Z M183.65513,126.23772 L188.360895,126.23772 L192.644549,134.509097 L196.896935,126.23772 L201.540165,126.23772 L194.817643,139.302737 L194.817643,149.281652 L190.40892,149.281652 L190.40892,139.302737 L183.65513,126.23772 Z" id="GIRLS-CODING-DAY" fill="url(#linearGradient-2)"></path>
            </g>
        </g>
    </g>
</svg>